<svg id="Calque_1" data-name="Calque 1" xmlns="http://www.w3.org/2000/svg" viewBox="0 0 1328.88 1105.68"><defs><style>.cls-1,.cls-2{fill:#fff;}.cls-2{opacity:0.49;}</style></defs><path class="cls-1" d="M1293.91,989.28a81.62,81.62,0,0,1-81.48,81.48H808.81a81.62,81.62,0,0,1-81.48-81.48V117.05a81.62,81.62,0,0,1,81.48-81.48h77.27a34.51,34.51,0,0,0,34.5,33.61h201.27a34.49,34.49,0,0,0,34.48-33.61h56.1a81.62,81.62,0,0,1,81.48,81.48Zm34.92-872.44A116.58,116.58,0,0,0,1212.43.44L808.76.49A116.57,116.57,0,0,0,692.37,116.88V618.35l0,370.89a116.6,116.6,0,0,0,116.4,116.4l403.67,0a116.59,116.59,0,0,0,116.4-116.4Z"/><path class="cls-2" d="M644.37,503.77H116.61a81.62,81.62,0,0,0-81.48,81.48v56.1a34.5,34.5,0,0,1,33.61,34.48V877.11a34.53,34.53,0,0,1-33.61,34.5v77.26a81.62,81.62,0,0,0,81.48,81.48H658.34a117,117,0,0,0,28.87,35H116.44A116.59,116.59,0,0,1,.05,988.92L0,585.25a116.59,116.59,0,0,1,116.4-116.4l528,0Z"/><circle class="cls-1" cx="1010.24" cy="991.61" r="45"/><path class="cls-1" d="M1169.71,386.75,980,573.86a10,10,0,0,1-14.09,0L850.77,458.68a10,10,0,0,0-14.14,0L811.3,484a10,10,0,0,0,0,14.13L965.72,652.9a10,10,0,0,0,14.11.05l229.26-226.64a10,10,0,0,0,0-14.18L1183.8,386.8A10,10,0,0,0,1169.71,386.75Z"/><path class="cls-1" d="M221.85,376.61a15,15,0,0,0,15-14.34c3.2-64.29,33.76-119,89.82-162.39,35.27-27.29,76.25-41.39,121.16-43.59,8.71-.43,10.7,2.35,10.52,10.59-.52,23.83-.1,47.68-.21,71.52,0,7.84,2.85,14.16,10.08,17,6.81,2.68,12.05-1.4,16.8-6.21,17.95-18.14,36-36.13,54.09-54.17q26.71-26.72,53.42-53.43c10.37-10.39,10.48-17.44-.11-28.06q-53-53.21-106.14-106.18c-5.46-5.45-11.51-9.51-19.73-6.12s-8.26,10.81-8.34,17.84c-.2,18.47-.06,36.94-.06,55.41,0,22.45,0,21.94-22.12,23.61C377,102.56,324.5,124,279.33,161.78c-33.44,28-60,61.74-77.56,102.28a284.75,284.75,0,0,0-23.42,96.74,15,15,0,0,0,15,15.81Z"/></svg>