<svg width="69" height="65" viewBox="0 0 69 65" fill="none" xmlns="http://www.w3.org/2000/svg">
<path d="M55.1054 0H13.8848V65H55.1054V0Z" fill="#401D0B"/>
<path d="M15.9558 61.9039L15.4751 62.3567V0H15.9558V61.9039Z" fill="#D3B27B"/>
<path d="M53.0347 61.9039L53.5154 62.3567V0H53.0347V61.9039Z" fill="#D3B27B"/>
<path d="M32.7529 16.2846C32.9563 16.4602 32.9193 16.8576 33.0765 17.1164V17.1257H33.0672C32.7899 16.9963 32.4017 17.0887 32.2075 16.9131C32.0042 16.7375 32.0411 16.3401 31.884 16.0813V16.0721H31.8932C32.1705 16.2014 32.5588 16.109 32.7529 16.2846ZM41.8494 14.1035C41.5813 14.2051 41.4611 14.6303 41.2023 14.8336L41.1931 14.8428L41.2023 14.8521C41.5351 14.8336 41.9049 15.0647 42.173 14.963C42.441 14.8613 42.5612 14.4362 42.8201 14.2329L42.8293 14.2236C42.8293 14.2144 42.8201 14.2144 42.8201 14.2144C42.4873 14.2329 42.1267 13.9926 41.8494 14.1035ZM42.7831 6.92233C42.7923 6.91309 42.7923 6.90385 42.7831 6.89461C42.7738 6.88536 42.7646 6.89461 42.7554 6.89461C42.1637 7.20884 41.304 7.07021 40.8972 7.47686C40.4812 7.88352 40.6199 8.74304 40.3056 9.33453C40.2964 9.34377 40.2964 9.35302 40.3056 9.36226C40.3148 9.3715 40.3241 9.36226 40.3333 9.36226C40.925 9.04802 41.7847 9.18666 42.1915 8.78C42.5982 8.37335 42.4688 7.51383 42.7831 6.92233ZM33.8161 1.69128C33.8161 1.68204 33.8068 1.68204 33.8068 1.68204C33.7976 1.68204 33.7976 1.69128 33.7976 1.69128C33.6959 2.12566 33.2521 2.49535 33.2799 2.88352C33.3076 3.27169 33.7976 3.57668 33.9547 3.99257C33.9547 4.00182 33.964 4.00182 33.964 4.00182C33.9732 4.00182 33.9732 3.99257 33.9732 3.99257C34.0749 3.55819 34.5186 3.18851 34.4909 2.80034C34.4632 2.41217 33.9732 2.10718 33.8161 1.69128ZM25.2373 8.27169C25.228 8.27169 25.228 8.27169 25.228 8.27169C25.228 8.27169 25.228 8.28093 25.2373 8.28093C25.4961 8.52122 25.5701 8.96485 25.8474 9.10348C26.1247 9.23287 26.5222 9.0203 26.8735 9.07575C26.8828 9.07575 26.8828 9.07575 26.8828 9.07575C26.8828 9.06651 26.8828 9.06651 26.8735 9.06651C26.6147 8.82621 26.5407 8.38259 26.2634 8.24396C25.9861 8.11457 25.5793 8.32714 25.2373 8.27169ZM29.0459 6.29387L27.5761 5.34193C27.5576 5.33268 27.5391 5.32344 27.5206 5.33268C27.5021 5.34193 27.5021 5.36965 27.5021 5.38814L27.8627 7.09793C27.8812 7.19036 27.9366 7.30126 28.0013 7.39368C28.066 7.4861 28.1492 7.57852 28.2324 7.63398L29.7023 8.58592C29.7208 8.59516 29.7393 8.6044 29.7578 8.59516C29.7763 8.58592 29.7763 8.55819 29.7763 8.53971L29.4157 6.82991C29.3972 6.73749 29.3418 6.62658 29.2771 6.53416C29.2123 6.4325 29.1291 6.34932 29.0459 6.29387ZM39.603 16.9316L40.4535 15.9611C40.4627 15.9519 40.472 15.9334 40.4627 15.9149C40.4535 15.8965 40.435 15.8872 40.4258 15.8872L39.1501 15.7116C39.0761 15.7024 38.9929 15.7116 38.9189 15.7486C38.845 15.7763 38.771 15.8225 38.7248 15.878L37.8743 16.8484C37.8651 16.8576 37.8558 16.8761 37.8651 16.8946C37.8743 16.9131 37.8928 16.9223 37.9021 16.9223L39.1778 17.0979C39.2517 17.1072 39.3349 17.0979 39.4089 17.0702C39.4921 17.024 39.5568 16.9778 39.603 16.9316ZM29.2123 10.4528C28.9905 10.6284 29.0275 11.6266 29.6376 12.3844C30.2477 13.1423 31.2184 13.3733 31.4402 13.1977C31.6621 13.0221 31.6251 12.024 31.015 11.2661C30.3956 10.5175 29.4342 10.2772 29.2123 10.4528ZM43.6151 10.1386C43.5504 10.0185 43.0697 9.91679 42.6444 10.1294C42.2192 10.3419 41.9973 10.7855 42.0528 10.9057C42.1175 11.0258 42.5982 11.1275 43.0234 10.9149C43.4579 10.7024 43.6798 10.268 43.6151 10.1386ZM27.2156 14.9353C27.5114 15.1941 27.3173 16.0721 28.3434 16.5711C29.2678 17.0332 30.146 16.488 30.3309 16.4787C30.0351 16.2199 30.2292 15.3419 29.2031 14.8428C28.2787 14.3807 27.4005 14.9168 27.2156 14.9353ZM40.7401 3.85394C40.3518 3.69682 39.8896 3.93712 39.7047 4.38999C39.5198 4.84285 39.677 5.34193 40.0652 5.49904C40.4535 5.65616 40.9157 5.41586 41.1006 4.963C41.2855 4.51013 41.1283 4.01106 40.7401 3.85394ZM37.6987 5.64692C37.7264 5.51753 37.6987 5.37889 37.6617 5.27723L37.218 3.80773C37.1533 3.6044 37.0978 3.51198 36.9869 3.4935C36.8759 3.47501 36.7927 3.53047 36.6541 3.69682L35.6742 4.87982C35.6002 4.963 35.5263 5.08315 35.4985 5.21254C35.4708 5.34193 35.4985 5.48056 35.5355 5.58222L35.9792 7.05172C36.0439 7.25505 36.0994 7.34747 36.2103 7.36596C36.3213 7.38444 36.4045 7.32899 36.5431 7.16263L37.523 5.97963C37.597 5.88721 37.671 5.77631 37.6987 5.64692ZM32.0596 4.77816L31.6344 4.04803C31.5789 3.94636 31.4495 3.90939 31.3478 3.97409L30.6175 4.39923C30.5158 4.45468 30.4788 4.58407 30.5435 4.68573L30.9688 5.41586C31.0242 5.51753 31.1537 5.5545 31.2554 5.4898L31.9857 5.06466C32.0781 5.00921 32.1151 4.87982 32.0596 4.77816ZM38.429 9.36226L37.4214 8.62289C37.3289 8.55819 37.1902 8.57668 37.1255 8.6691L36.386 9.67649C36.3213 9.76891 36.3398 9.90754 36.4322 9.97224L37.4398 10.7116C37.5323 10.7763 37.6709 10.7578 37.7357 10.6654L38.4752 9.65801C38.5399 9.56559 38.5214 9.42695 38.429 9.36226ZM26.9013 11.451L25.8012 11.6913C25.6995 11.7098 25.6348 11.8207 25.6533 11.9223L25.8936 13.0221C25.9121 13.1238 26.023 13.1885 26.1247 13.17L27.2248 12.9297C27.3265 12.9112 27.3912 12.8003 27.3727 12.6987L27.1324 11.5989C27.1139 11.488 27.0122 11.4233 26.9013 11.451ZM41.0451 11.3124C41.0451 11.2569 41.0544 11.2199 41.0174 11.2014C40.9897 11.1922 40.9527 11.2107 40.8787 11.2477C40.1854 11.6173 39.187 11.5619 38.7063 12.1164C38.2071 12.6987 38.1332 14.2606 38.1147 14.4177C38.1147 14.4732 38.1054 14.5101 38.1424 14.5286C38.1701 14.5379 38.2071 14.5194 38.2811 14.4824C38.9744 14.1127 39.9728 14.1682 40.4535 13.6136C40.9619 13.0314 41.0359 11.4695 41.0451 11.3124ZM32.2722 6.76522C32.226 6.72825 32.1983 6.70976 32.1705 6.72825C32.1521 6.73749 32.1428 6.79294 32.1336 6.86688C32.0873 7.65246 31.5142 8.47501 31.7268 9.16817C31.9579 9.8983 33.2429 10.7855 33.3816 10.878C33.4278 10.9149 33.4555 10.9334 33.4832 10.9149C33.5017 10.9057 33.511 10.8502 33.5202 10.7763C33.5664 9.99072 34.1396 9.16817 33.927 8.47501C33.6959 7.74488 32.4109 6.85764 32.2722 6.76522ZM34.8329 16.5526C35.1842 15.7393 36.2751 15.3604 36.3675 14.1404C36.4692 12.7079 35.3044 11.9593 35.1935 11.7282C34.8422 12.5416 33.7513 12.9205 33.6589 14.1404C33.548 15.5637 34.722 16.3216 34.8329 16.5526Z" fill="#6D483E"/>
<path d="M31.0613 55.0924H24.0078V61.3956H31.0613V55.0924Z" fill="#0068B2"/>
<path d="M38.1052 55.0924H31.0518V61.3956H38.1052V55.0924Z" fill="white"/>
<path d="M45.1589 55.0924H38.1055V61.3956H45.1589V55.0924Z" fill="#E30613"/>
<path d="M34.5 57.1072C53.5538 57.1072 69 48.5791 69 38.0591C69 27.5392 53.5538 19.011 34.5 19.011C15.4462 19.011 0 27.5392 0 38.0591C0 48.5791 15.4462 57.1072 34.5 57.1072Z" fill="#D3B27B"/>
<path d="M34.4905 55.7578C10.4458 55.7578 7.47839 41.0997 1.24768 38.2069C1.2107 38.1884 1.146 38.1422 1.146 38.0591C1.146 37.9851 1.2107 37.9389 1.24768 37.9112C4.43699 35.8964 14.9663 20.3604 34.4905 20.3604C58.5351 20.3604 61.5025 35.0184 67.7332 37.9112C67.7702 37.9297 67.8349 37.9759 67.8349 38.0591C67.8349 38.133 67.7702 38.1792 67.7332 38.2069C64.5439 40.2217 54.0146 55.7578 34.4905 55.7578Z" fill="white"/>
<path d="M17.3798 28.6043C17.389 28.6043 17.389 28.6135 17.389 28.6135C17.3521 28.8908 17.1857 29.1403 16.9268 29.2975C16.7512 29.4084 16.557 29.4638 16.3722 29.4638C16.0209 29.4638 15.6881 29.279 15.4755 28.9278C15.3091 28.6597 15.2536 28.3732 15.3276 28.1052C15.3923 27.8464 15.5679 27.6154 15.8175 27.4675C16.0671 27.3196 16.3722 27.2642 16.594 27.3474C16.6033 27.3474 16.6033 27.3566 16.6033 27.3566L16.5108 27.8002C16.5108 27.8002 16.5108 27.8095 16.5016 27.8095H16.4923C16.3629 27.754 16.2058 27.7725 16.0763 27.8557C15.9469 27.9389 15.8637 28.059 15.836 28.2069C15.8083 28.3548 15.8452 28.5119 15.9377 28.6597C16.1226 28.9647 16.4461 29.0664 16.7142 28.9C16.8529 28.8169 16.9453 28.6782 16.9453 28.5211V28.5119H16.9546L17.3798 28.6043ZM18.3505 26.1459C18.3505 26.1366 18.3412 26.1366 18.3412 26.1459L17.9252 26.3584C17.916 26.3584 17.916 26.3677 17.9252 26.3677L18.2673 27.0424L17.6201 27.3751L17.2781 26.7004C17.2781 26.7004 17.2781 26.7004 17.2689 26.6912H17.2596L16.8436 26.9037C16.8344 26.9037 16.8344 26.913 16.8436 26.913L17.7681 28.7152L17.7773 28.7244L18.1933 28.5119C18.1933 28.5119 18.1933 28.5119 18.2025 28.5026V28.4934L17.8235 27.7448L18.4706 27.4121L18.8497 28.1607C18.8497 28.1699 18.8589 28.1699 18.8589 28.1607L19.2749 27.9481C19.2749 27.9481 19.2749 27.9481 19.2841 27.9389V27.9296L18.3505 26.1459ZM21.0591 26.0719C21.3087 26.6634 21.0776 27.2457 20.5044 27.486C20.3657 27.5507 20.2178 27.5784 20.0699 27.5784C19.9405 27.5784 19.8111 27.5507 19.6909 27.5045C19.432 27.4028 19.2287 27.181 19.1085 26.8945C18.9883 26.5987 18.9791 26.3122 19.0808 26.0627C19.1825 25.8132 19.3951 25.6191 19.6632 25.4989C19.9405 25.3788 20.2271 25.3695 20.4767 25.4712C20.7355 25.5729 20.9389 25.7854 21.0591 26.0719ZM20.5876 26.2753C20.5229 26.1182 20.412 25.998 20.2825 25.9333C20.1531 25.8686 19.996 25.8686 19.8573 25.9241C19.5615 26.0442 19.4598 26.3677 19.5984 26.6912C19.6632 26.8483 19.7741 26.9777 19.9128 27.0424C20.0422 27.1071 20.1993 27.1071 20.338 27.0516C20.6153 26.9315 20.7263 26.608 20.5876 26.2753ZM22.8617 25.8871C22.8525 25.8871 22.8525 25.8871 22.8432 25.8963C22.8062 26.0442 22.6861 26.1644 22.5289 26.2198C22.381 26.266 22.2331 26.2568 22.1129 26.1828C21.9835 26.1089 21.8818 25.9795 21.8263 25.8132C21.7154 25.4804 21.8448 25.157 22.1407 25.0553C22.2886 24.9999 22.4457 25.0183 22.5566 25.1015H22.5659C22.5659 25.1015 22.5751 25.1015 22.5751 25.0923L22.7693 24.6764V24.6671C22.5659 24.547 22.2608 24.5193 21.9835 24.6209C21.3919 24.8243 21.133 25.3788 21.3364 25.9795C21.4381 26.266 21.623 26.4971 21.8726 26.6172C22.0112 26.6819 22.1591 26.7189 22.3163 26.7189C22.4365 26.7189 22.5567 26.7004 22.6768 26.6542C22.9727 26.5525 23.1853 26.3492 23.2777 26.0904C23.2777 26.0812 23.2777 26.0812 23.2685 26.0812L22.8617 25.8871ZM23.703 26.0165C23.4626 25.8779 23.287 25.6376 23.2038 25.3418C23.1206 25.0368 23.1483 24.7503 23.287 24.51C23.4164 24.279 23.6567 24.1126 23.9433 24.0294C24.2299 23.9463 24.5165 23.9832 24.7476 24.1126C24.9879 24.2512 25.1636 24.4823 25.2468 24.7873C25.4132 25.4065 25.1081 25.9518 24.5072 26.1182C24.4055 26.1459 24.3038 26.1551 24.2022 26.1551C24.0265 26.1551 23.8509 26.1089 23.703 26.0165ZM24.387 25.6653C24.6921 25.5821 24.84 25.2771 24.7476 24.9259C24.7013 24.7596 24.6089 24.6302 24.4887 24.547C24.3685 24.4638 24.2114 24.4453 24.0635 24.4823C23.7584 24.5655 23.6105 24.8612 23.703 25.2124C23.7492 25.3788 23.8416 25.5174 23.9618 25.6006C24.0912 25.6745 24.2391 25.7023 24.387 25.6653ZM26.994 25.462L26.9015 25.0461C26.9015 25.0368 26.8923 25.0368 26.8923 25.0368L26.1712 25.1939L25.8384 23.6413C25.8384 23.632 25.8292 23.632 25.8292 23.632L25.3762 23.7337H25.3669V23.7429L25.7922 25.7207V25.73C25.7922 25.73 25.7922 25.73 25.8014 25.73L26.9847 25.4712L26.994 25.462ZM27.1604 25.425C27.1511 25.425 27.1511 25.425 27.1604 25.425L27.6318 23.2901C27.6318 23.2901 27.6318 23.2808 27.6411 23.2808L28.0848 23.2069C28.0848 23.2069 28.094 23.2069 28.094 23.2161L29.2034 25.0923V25.1015C29.2034 25.1015 29.2034 25.1108 29.1941 25.1108L28.6857 25.1939C28.6857 25.1939 28.6764 25.1939 28.6764 25.1847L28.4731 24.8243L27.752 24.9444L27.678 25.3511C27.678 25.3511 27.678 25.3603 27.6688 25.3603L27.1604 25.425C27.1604 25.4342 27.1604 25.4342 27.1604 25.425C27.1604 25.425 27.1604 25.4342 27.1604 25.425ZM28.2697 24.4268L27.9461 23.8169L27.8259 24.5008L28.2697 24.4268ZM30.3774 22.9204C30.3681 22.9111 30.3681 22.9111 30.3774 22.9204L28.8243 23.096C28.8151 23.096 28.8151 23.1052 28.8151 23.1052L28.8613 23.5211V23.5304C28.8613 23.5304 28.8613 23.5304 28.8706 23.5304L29.3975 23.4657L29.5824 25.0553V25.0645C29.5824 25.0645 29.5824 25.0645 29.5916 25.0645L30.0538 25.0091C30.0631 25.0091 30.0631 24.9999 30.0631 24.9999L29.8782 23.4102L30.4051 23.3455C30.4144 23.3455 30.4144 23.3363 30.4144 23.3363L30.3774 22.9204ZM32.2725 24.3806L31.3943 24.4453L31.3665 24.0479L32.1523 23.9925H32.1616V23.9832L32.1338 23.595C32.1338 23.5858 32.1246 23.5858 32.1246 23.5858L31.3388 23.6413L31.3111 23.2808L32.1431 23.2254H32.1523V23.2161L32.1246 22.8002C32.1246 22.791 32.1153 22.791 32.1153 22.791L30.8211 22.8834H30.8119V22.8926L30.9598 24.9167C30.9598 24.9259 30.969 24.9259 30.969 24.9259L32.3095 24.8335H32.3187V24.8243L32.291 24.4084C32.2817 24.3899 32.2817 24.3806 32.2725 24.3806ZM34.3247 24.7596L33.7793 24.7688C33.7793 24.7688 33.7701 24.7688 33.7701 24.7596L33.3356 23.974H33.1969L33.2154 24.7688C33.2154 24.778 33.2154 24.778 33.2062 24.778L32.7532 24.7873H32.7439C32.7439 24.7873 32.7439 24.7873 32.7439 24.778L32.6977 22.754C32.6977 22.7448 32.6977 22.7448 32.707 22.7448L33.4373 22.7263C33.5852 22.7263 33.7886 22.7448 33.955 22.8464C34.1121 22.9481 34.1953 23.1145 34.2046 23.327C34.2138 23.595 34.0751 23.7984 33.8255 23.8908L34.3432 24.7318C34.3432 24.7503 34.3432 24.7503 34.3247 24.7596C34.334 24.7596 34.334 24.7596 34.3247 24.7596ZM33.6222 23.1884C33.5759 23.1607 33.502 23.1514 33.4188 23.1514L33.1784 23.1607L33.1877 23.6135L33.4003 23.6043C33.5482 23.6043 33.7239 23.5581 33.7239 23.364C33.7239 23.2808 33.6869 23.2254 33.6222 23.1884ZM35.1105 24.778C35.1198 24.778 35.1198 24.778 35.1105 24.778C35.1198 24.7688 35.1198 24.7688 35.1198 24.7688L35.1382 22.7448C35.1382 22.7355 35.1382 22.7355 35.129 22.7355L34.6575 22.7263H34.6483C34.6483 22.7263 34.6483 22.7263 34.6483 22.7355L34.6298 24.7596C34.6298 24.7688 34.6298 24.7688 34.639 24.7688L35.1105 24.778ZM37.0333 22.791L35.7391 22.7355C35.7299 22.7355 35.7299 22.7355 35.7299 22.7448L35.6374 24.7688V24.778C35.6374 24.778 35.6374 24.778 35.6467 24.778L36.9871 24.8335C36.9964 24.8335 36.9964 24.8335 36.9964 24.8243L37.0149 24.4084C37.0149 24.3991 37.0149 24.3991 37.0056 24.3991L36.1181 24.3621L36.1366 23.9647L36.9224 24.0017H36.9317C36.9317 24.0017 36.9317 24.0017 36.9317 23.9925L36.9501 23.6043C36.9501 23.595 36.9501 23.595 36.9409 23.595L36.1551 23.5581L36.1736 23.1976L37.0056 23.2346C37.0149 23.2346 37.0149 23.2346 37.0149 23.2254L37.0333 22.8095C37.0426 22.8002 37.0333 22.8002 37.0333 22.791C37.0333 22.8002 37.0333 22.8002 37.0333 22.791ZM39.5293 25.083C39.5386 25.083 39.5386 25.083 39.5386 25.0738L39.6403 24.3067L40.3706 24.3991C40.3798 24.3991 40.3798 24.3991 40.3798 24.3899L40.4353 23.9925V23.9832C40.4353 23.9832 40.4353 23.9832 40.426 23.9832L39.6957 23.8908L39.7512 23.4934L40.5462 23.595C40.5555 23.595 40.5554 23.595 40.5554 23.5858L40.6109 23.1699V23.1607C40.6109 23.1607 40.6109 23.1607 40.6017 23.1607L39.3444 22.9943C39.3352 22.9943 39.3352 22.9943 39.3352 23.0036L39.0763 25.0091V25.0183C39.0763 25.0183 39.0764 25.0183 39.0856 25.0183L39.5293 25.083C39.5201 25.083 39.5201 25.083 39.5293 25.083ZM41.748 25.0276L41.0269 24.8982L40.8235 25.2586L40.8143 25.2679L40.3151 25.1755C40.3151 25.1755 40.3059 25.1755 40.3059 25.1662V25.157L41.4522 23.2993L41.4614 23.2901L41.9051 23.364C41.9051 23.364 41.9144 23.364 41.9144 23.3732L42.3489 25.5082V25.5174C42.3489 25.5174 42.3489 25.5174 42.3396 25.5174L41.8312 25.425C41.8312 25.425 41.8219 25.425 41.8219 25.4158L41.748 25.0276ZM41.6833 24.6024L41.5723 23.9185L41.2303 24.5193L41.6833 24.6024ZM43.7725 25.8779L44.5768 24.6302L44.2347 25.9888V25.998C44.2347 25.998 44.2347 25.998 44.244 25.998L44.6877 26.1089C44.6877 26.1089 44.6969 26.1089 44.6969 26.0997L45.1776 24.1311V24.1219C45.1776 24.1219 45.1776 24.1219 45.1684 24.1219L44.512 23.9647H44.5028L43.791 25.12L43.6801 23.7706C43.6801 23.7706 43.6801 23.7614 43.6708 23.7614L43.0329 23.6043C43.0237 23.6043 43.0237 23.6043 43.0237 23.6135L42.543 25.5821V25.5914C42.543 25.5914 42.543 25.5914 42.5522 25.5914L42.9775 25.693H42.9867C42.9867 25.693 42.9867 25.693 42.9867 25.6838L43.3103 24.3252L43.4397 25.7947C43.4397 25.7947 43.4397 25.8039 43.4489 25.8039L43.7633 25.8779C43.7633 25.8779 43.7725 25.8779 43.7725 25.8779ZM46.1853 24.4268L45.7416 24.2882H45.7323C45.7323 24.2882 45.7323 24.2882 45.7231 24.2975L45.1314 26.2383C45.1314 26.2475 45.1314 26.2475 45.1407 26.2475L45.5844 26.3862C45.5844 26.3862 45.5844 26.3862 45.5936 26.3862C45.5936 26.3862 45.5936 26.3862 45.6029 26.3769L46.1945 24.4361C46.1945 24.4361 46.1853 24.4361 46.1853 24.4268ZM46.6937 26.2845L47.2114 24.778C47.2114 24.7688 47.2114 24.7688 47.2022 24.7688L46.7584 24.6117H46.7492C46.7492 24.6117 46.7492 24.6117 46.7399 24.6209L46.0743 26.5341C46.0743 26.5433 46.0743 26.5433 46.0836 26.5433L47.2299 26.9407C47.2299 26.9407 47.2299 26.9407 47.2391 26.9315L47.3778 26.5248C47.3778 26.5156 47.3778 26.5156 47.3686 26.5156L46.6937 26.2845ZM48.7922 25.3603L48.3577 25.1847H48.3485C48.3485 25.1847 48.3485 25.1847 48.3392 25.1939L47.5997 27.0793C47.5997 27.0886 47.5997 27.0886 47.6089 27.0886L48.0434 27.2642C48.0434 27.2642 48.0434 27.2642 48.0526 27.2549L48.7922 25.3695C48.8014 25.3695 48.8014 25.3603 48.7922 25.3603ZM50.336 26.0257L50.3452 26.035L50.2343 28.2069C50.2343 28.2069 50.2343 28.2161 50.2251 28.2161C50.2251 28.2161 50.2251 28.2161 50.2158 28.2161L49.7444 28.0036L49.7351 27.9943L49.7629 27.5784L49.0973 27.2734L48.8107 27.5692H48.8014L48.3392 27.3566C48.3392 27.3566 48.33 27.3566 48.33 27.3474V27.3381L49.9108 25.8316H49.92L50.336 26.0257ZM49.8091 27.144L49.8738 26.4509L49.3931 26.9499L49.8091 27.144ZM51.7689 26.7374L51.3529 26.5156H51.3436C51.3436 26.5156 51.3344 26.5156 51.3344 26.5248L50.3822 28.3085C50.3822 28.3178 50.3822 28.3178 50.3822 28.3178L51.4546 28.8908C51.4546 28.8908 51.4546 28.8908 51.4638 28.8908C51.4638 28.8908 51.4731 28.8908 51.4731 28.8816L51.6764 28.5026C51.6764 28.4934 51.6764 28.4934 51.6764 28.4934L51.0293 28.1422L51.7781 26.7374C51.7781 26.7466 51.7781 26.7466 51.7689 26.7374ZM53.969 28.0313L52.869 27.3474H52.8597H52.8505L51.7781 29.0664C51.7781 29.0756 51.7781 29.0756 51.7781 29.0756L52.9152 29.7873C52.9152 29.7873 52.9152 29.7873 52.9244 29.7873H52.9337L53.1555 29.4361C53.1555 29.4268 53.1555 29.4268 53.1555 29.4268L52.4067 28.9555L52.6194 28.6135L53.2942 29.0294H53.3034H53.3127L53.5161 28.6967C53.5161 28.6875 53.5161 28.6875 53.5161 28.6875L52.8412 28.2716L53.0354 27.9666L53.7472 28.4102H53.7564H53.7657L53.9875 28.059C53.9783 28.0405 53.9783 28.0405 53.969 28.0313Z" fill="#401D0B"/>
<path d="M24.8581 50.4343L24.1832 50.2587C24.174 50.2587 24.174 50.2587 24.174 50.2679L23.6748 52.2273V52.2365C23.6748 52.2365 23.6748 52.2365 23.684 52.2365L24.3774 52.4121C24.4883 52.4398 24.5992 52.4583 24.7102 52.4583C25.1354 52.4583 25.5514 52.2365 25.6901 51.6912C25.7825 51.3493 25.7271 51.0535 25.5514 50.8317C25.3573 50.6007 25.0707 50.4897 24.8581 50.4343ZM24.5253 50.804L24.7379 50.8594C25.2371 50.9888 25.2556 51.3215 25.1909 51.5711C25.0615 52.0609 24.664 52.0424 24.4329 51.9777L24.2295 51.9223L24.5253 50.804ZM27.8533 51.0905C27.8625 51.0905 27.8625 51.0997 27.8625 51.0997L27.7886 51.5064V51.5156H27.7793L26.9566 51.3585L26.8919 51.7097L27.6684 51.8576C27.6776 51.8576 27.6776 51.8668 27.6776 51.8668L27.6037 52.255V52.2642H27.5944L26.8179 52.1164L26.7439 52.5138L27.6129 52.6801C27.6221 52.6801 27.6222 52.6894 27.6222 52.6894L27.5482 53.096V53.1053C27.5482 53.1053 27.5482 53.1053 27.539 53.1053L26.217 52.8557C26.2078 52.8557 26.2078 52.8465 26.2078 52.8465L26.5868 50.8594V50.8502H26.596L27.8533 51.0905ZM29.2677 51.2938L28.5651 51.2014C28.5558 51.2014 28.5558 51.2014 28.5558 51.2106L28.2877 53.2162V53.2254C28.2877 53.2254 28.2877 53.2254 28.297 53.2254L28.7592 53.2901C28.7685 53.2901 28.7685 53.2901 28.7685 53.2809L28.8701 52.5323L29.092 52.56C29.3139 52.5877 29.4988 52.56 29.6467 52.4861C29.8131 52.3936 29.9148 52.2365 29.9425 52.0147C29.9702 51.7929 29.9148 51.6173 29.7853 51.4971C29.6652 51.3955 29.4895 51.3215 29.2677 51.2938ZM28.9811 51.6727L29.1752 51.7005C29.2677 51.7097 29.3416 51.7374 29.3878 51.7744C29.4433 51.8206 29.471 51.8761 29.4618 51.9685C29.4433 52.1256 29.3231 52.1903 29.1105 52.1626L28.9256 52.1349L28.9811 51.6727ZM32.2813 51.5803L32.1889 52.8465C32.1519 53.3178 31.8283 53.6136 31.3754 53.6136C31.3476 53.6136 31.3199 53.6136 31.2922 53.6136C31.0426 53.5951 30.8392 53.5027 30.7005 53.3363C30.5619 53.1792 30.5064 52.9666 30.5249 52.7263L30.6173 51.4694C30.6173 51.4602 30.6266 51.4602 30.6266 51.4602L31.0888 51.4971H31.098C31.098 51.4971 31.098 51.4971 31.098 51.5064L31.0056 52.7263C30.9871 52.9851 31.1073 53.1422 31.3291 53.1607C31.4308 53.17 31.6804 53.1515 31.7082 52.7818L31.8006 51.5618C31.8006 51.5526 31.8099 51.5526 31.8099 51.5526L32.2813 51.5803ZM33.4738 51.6173C33.4738 51.6173 33.4738 51.6265 33.4738 51.6173L33.4184 53.6506C33.4184 53.6598 33.4091 53.6598 33.4091 53.6598L32.9377 53.6413H32.9284C32.9284 53.6413 32.9284 53.6413 32.9284 53.6321L32.9931 51.608C32.9931 51.5988 33.0024 51.5988 33.0024 51.5988L33.4738 51.6173C33.4646 51.6173 33.4646 51.6173 33.4738 51.6173ZM34.6571 52.0702C34.6294 52.0979 34.6109 52.1441 34.6109 52.1995C34.6109 52.3289 34.7126 52.3659 34.9067 52.4214C35.1656 52.5045 35.5168 52.6247 35.5168 53.0313C35.5168 53.2532 35.4429 53.4288 35.295 53.5489C35.1656 53.6598 34.9807 53.7153 34.7773 53.7153H34.7681C34.4907 53.7153 34.2134 53.6044 34.047 53.4288V53.4195L34.3521 53.0868C34.3521 53.0868 34.3521 53.0868 34.3613 53.0868H34.3706C34.463 53.2069 34.6294 53.2901 34.7773 53.2901C34.8512 53.2901 34.916 53.2716 34.9529 53.2439C34.9992 53.2069 35.0269 53.1515 35.0269 53.0776C35.0269 52.9297 34.8882 52.8835 34.6386 52.8003H34.6294C34.3798 52.7171 34.1302 52.5877 34.1209 52.218C34.1209 52.0055 34.2041 51.8391 34.3613 51.719C34.4907 51.6173 34.6756 51.5618 34.8697 51.5618H34.879C35.1101 51.5618 35.3504 51.6543 35.5076 51.8114C35.5076 51.8114 35.5076 51.8206 35.5076 51.8299L35.2118 52.1626H35.2025H35.1933C35.1193 52.0609 34.9807 51.9962 34.8605 51.9962C34.8143 51.9962 34.7126 52.0055 34.6571 52.0702ZM38.1885 51.4694L38.3549 53.4842C38.3549 53.4934 38.3549 53.4934 38.3456 53.4934L37.8927 53.5304H37.8834C37.8834 53.5304 37.8834 53.5304 37.8834 53.5212L37.7632 52.0609L37.4489 52.3659C37.4489 52.3659 37.4489 52.3659 37.4397 52.3659H37.4304L37.1623 52.0424V52.0332L37.754 51.4971C37.754 51.4971 37.754 51.4971 37.7632 51.4971L38.1792 51.4602C38.1792 51.4602 38.1792 51.4602 38.1885 51.4694C38.1885 51.4602 38.1885 51.4602 38.1885 51.4694ZM40.4811 51.3215C40.3239 51.2106 40.1206 51.1737 39.9172 51.2014C39.4734 51.2661 39.1961 51.608 39.2608 52.0424C39.2885 52.2273 39.381 52.3936 39.5197 52.4953C39.6583 52.597 39.8247 52.6432 39.9911 52.6154C40.0281 52.6062 40.0651 52.597 40.1021 52.5877L39.7323 53.3271V53.3363H39.7415L40.2869 53.2624C40.2869 53.2624 40.2962 53.2624 40.2962 53.2531L40.6567 52.4676C40.7584 52.2458 40.8139 52.0517 40.7861 51.8114C40.7492 51.608 40.6475 51.4324 40.4811 51.3215ZM40.0558 52.2273C39.8894 52.255 39.7508 52.1441 39.723 51.9592C39.6953 51.7744 39.797 51.6265 39.9726 51.608C40.139 51.5896 40.2777 51.7005 40.3054 51.8761C40.3332 52.0609 40.2315 52.2088 40.0558 52.2273ZM43.0233 52.3567L43.1065 52.7633V52.7726C43.1065 52.7726 43.1065 52.7726 43.0972 52.7726L41.7291 53.0406C41.7198 53.0406 41.7198 53.0406 41.7198 53.0313L41.6459 52.6339V52.6247L42.2468 51.7744C42.33 51.645 42.3577 51.5526 42.3392 51.4417C42.3115 51.3031 42.2005 51.2291 42.0711 51.2568C41.9324 51.2846 41.8585 51.414 41.8677 51.5988V51.608C41.8677 51.608 41.8677 51.608 41.8585 51.608L41.4148 51.6265C41.4055 51.6265 41.4055 51.6265 41.4055 51.6173C41.3685 51.2199 41.6089 50.9056 42.0064 50.8225C42.3484 50.7578 42.7367 50.8779 42.8199 51.3031C42.8754 51.5896 42.7552 51.7836 42.6073 51.987L42.2652 52.4583L43.014 52.3104C43.014 52.3474 43.014 52.3474 43.0233 52.3567C43.0233 52.3567 43.0233 52.3474 43.0233 52.3567ZM44.0679 50.3788C43.8183 50.4435 43.6519 50.6007 43.5779 50.841C43.5132 51.0443 43.5225 51.3123 43.5964 51.608C43.7443 52.1811 44.0402 52.4861 44.4192 52.4861C44.4839 52.4861 44.5486 52.4768 44.6133 52.4583C44.8629 52.3936 45.0293 52.2365 45.1033 51.9962C45.168 51.7837 45.1587 51.5156 45.0755 51.2199C44.8999 50.5637 44.5301 50.2587 44.0679 50.3788ZM44.0124 51.0628C44.0217 50.9056 44.0771 50.8132 44.1696 50.7855C44.1881 50.7855 44.1973 50.7763 44.2158 50.7763C44.299 50.7763 44.373 50.8317 44.4377 50.9426C44.5116 51.0628 44.5671 51.2199 44.5948 51.34C44.6226 51.4509 44.6595 51.6173 44.6503 51.7652C44.641 51.9223 44.5948 52.0147 44.4931 52.0424C44.2528 52.1071 44.1049 51.6727 44.0586 51.4787C44.0494 51.3955 44.0032 51.2199 44.0124 51.0628Z" fill="#401D0B"/>
<path d="M49.2724 31.7745C45.9814 31.7745 43.319 34.4363 43.319 37.7265C43.319 41.0167 45.9814 43.6784 49.2724 43.6784C52.5634 43.6784 55.2258 41.0167 55.2258 37.7265C55.2258 34.4363 52.5634 31.7745 49.2724 31.7745ZM49.2724 41.8022C47.0168 41.8022 45.1957 39.9723 45.1957 37.7265C45.1957 35.4714 47.026 33.6507 49.2724 33.6507C51.5281 33.6507 53.3492 35.4806 53.3492 37.7265C53.3584 39.9723 51.5281 41.8022 49.2724 41.8022ZM58.3874 32.135V43.6692H56.5108V32.135H58.3874ZM39.6028 30.1664C39.5751 30.0093 39.3809 30 39.3255 30.1664L35.5723 41.0074L31.7913 30.1664C31.7359 30 31.5417 30.0093 31.514 30.1664C29.434 41.5342 25.653 42.3568 23.5361 42.3568C22.6486 42.3568 21.8351 42.135 21.1603 41.6636C21.3452 41.5157 28.7407 35.3882 28.7407 35.3882C27.7423 33.5952 25.8472 32.3753 23.6655 32.329C24.026 32.1997 24.3866 32.0425 24.7194 31.8577C25.1261 31.6544 25.2371 31.5342 25.2371 31.0074V29.5749C24.2756 30.2681 22.852 30.878 21.9645 31.0351V32.5324C19.4501 33.2255 17.6197 35.5268 17.5827 38.2717C17.5642 39.4363 17.8323 40.4806 18.3315 41.3586C17.2777 41.9594 16.0666 42.3568 14.3934 42.3568C11.6571 42.3475 9.91913 40.5268 9.91913 38.2717C9.91913 36.0167 11.7495 34.1867 14.0051 34.1867C14.8464 34.1867 15.6321 34.4455 16.2885 34.8799L17.4995 33.4473C16.5196 32.7357 15.3086 32.3106 14.0051 32.3106C10.7141 32.3106 8.05176 34.9723 8.05176 38.2625C8.05176 41.5527 10.5292 44.2329 14.3934 44.2144C16.0574 44.2052 17.6752 43.854 19.5055 42.7819C20.5871 43.6507 22.094 44.2144 23.5361 44.2144C26.3926 44.2144 30.2937 42.4677 31.8653 36.1645L35.4151 46.3771C35.4891 46.5897 35.6277 46.5897 35.7017 46.3771L39.2145 36.2754C40.1944 39.6581 41.8307 42.8743 43.9939 44.8522H46.5916C43.7258 42.8743 40.8416 37.9298 39.6028 30.1664ZM19.4593 38.281C19.4593 36.0259 21.2897 34.196 23.5453 34.196C24.5252 34.196 25.4127 34.5379 26.1153 35.1109C26.1153 35.1109 20.3098 39.9353 19.94 40.2311C19.635 39.6581 19.4593 38.9926 19.4593 38.281Z" fill="#401D0B"/>
<path d="M54.4401 34.1959C55.3276 35.2772 55.8637 36.6543 55.8637 38.1607C55.8637 41.608 53.0534 44.4177 49.6053 44.4177C47.4606 44.4177 45.5655 43.3363 44.4377 41.682C45.584 43.0776 47.3219 43.974 49.2725 43.974C52.7206 43.974 55.5309 41.1644 55.5309 37.7171C55.5309 36.414 55.1242 35.2032 54.4401 34.1959ZM45.8336 38.17C45.8336 36.0905 47.5253 34.3992 49.6053 34.3992C50.7424 34.3992 51.7592 34.9075 52.4526 35.7023C51.7777 34.658 50.6129 33.9556 49.2725 33.9556C47.1925 33.9556 45.5008 35.6469 45.5008 37.7263C45.5008 38.669 45.8521 39.5378 46.4345 40.2032C46.0555 39.6117 45.8336 38.9186 45.8336 38.17ZM58.6925 32.5785V43.974H56.9546V44.4177H59.1362V32.5785H58.6925ZM23.5454 44.5286C22.1495 44.5286 20.6519 44.0202 19.4871 43.1515C17.8324 44.0849 16.2516 44.5101 14.4027 44.5286C12.4799 44.5471 10.7512 43.8816 9.54017 42.6801C9.29982 42.4491 9.0872 42.1903 8.89307 41.9223C9.14266 42.3567 9.44773 42.7541 9.80826 43.1145C11.01 44.3068 12.7202 44.9629 14.6153 44.9629C16.344 44.9629 18.0912 44.5286 19.7367 43.5951C20.7998 44.4269 22.3251 44.9722 23.7303 44.9722C26.5036 44.9722 30.2846 43.2716 32.1242 37.8465L31.8931 37.1903C30.4694 41.8114 27.3911 44.5286 23.5454 44.5286ZM10.5663 38.7245C10.5663 36.645 12.258 34.9445 14.3472 34.9445C15.1053 34.9445 15.8356 35.1663 16.455 35.5914L16.6029 35.6931L17.8694 34.1959C17.7492 34.1127 17.629 34.0295 17.4996 33.9463L16.344 35.3049L16.1222 35.1478C15.4936 34.7227 14.7632 34.5008 14.0145 34.5008C11.9345 34.5008 10.2335 36.1922 10.2335 38.2809C10.2335 39.2513 10.5663 40.0923 11.1395 40.7393C10.7789 40.1663 10.5663 39.4824 10.5663 38.7245ZM23.9059 34.926C24.4606 34.926 24.9968 35.0461 25.4775 35.2495L25.6161 35.1293C24.9968 34.7227 24.285 34.5008 23.5362 34.5008C21.4562 34.5008 19.7552 36.1922 19.7552 38.2809C19.7552 38.5212 19.7737 38.7522 19.8199 38.974C19.8384 36.7282 21.6595 34.926 23.9059 34.926ZM25.9305 31.3308V30.0184C25.8103 30.1108 25.6809 30.194 25.5422 30.2772V31.0073C25.5422 31.682 25.3388 31.8853 24.8581 32.1349C24.8396 32.1441 24.8304 32.1533 24.8119 32.1626C24.9968 32.1995 25.1817 32.2458 25.3573 32.3012C25.6809 32.1071 25.9305 31.8391 25.9305 31.3308ZM21.6965 41.6358C21.8444 41.7097 21.9923 41.7744 22.1495 41.8299C23.6563 40.5822 27.4558 37.4306 28.8239 36.2938C28.75 36.1644 28.676 36.035 28.5928 35.9149L21.9276 41.4417C21.8537 41.5064 21.7797 41.5711 21.6965 41.6358ZM44.6411 45.1663C44.789 45.3234 44.9369 45.4713 45.094 45.6099H47.7379C47.5346 45.4713 47.3404 45.3234 47.1463 45.1663H44.6411ZM35.9144 46.7097L36.0438 47.0702C36.1085 47.255 36.1917 47.255 36.2564 47.0702L39.4272 37.9297C39.3533 37.7079 39.2701 37.4861 39.1961 37.2642L35.9144 46.7097ZM40.4441 30.6099C40.4164 30.4528 40.213 30.4435 40.1575 30.6099L40.0466 30.9334C40.9988 36.2106 42.8199 40.536 45.131 43.1238C42.9493 40.3881 41.5442 36.4232 40.4441 30.6099ZM32.4662 30.6099C32.4477 30.73 32.42 30.8594 32.4015 30.9796L35.5631 40.0831L35.7942 39.4084L32.7343 30.6099C32.6788 30.4528 32.494 30.4528 32.4662 30.6099Z" fill="#D3B27B"/>
</svg>
