<svg width="21" height="21" viewBox="0 0 21 21" fill="none" xmlns="http://www.w3.org/2000/svg">
<path d="M14.3901 5.52816C14.1691 5.51166 14.0841 5.52886 13.9991 5.51205C13.0644 5.36118 12.1296 5.21031 11.1949 5.05944C10.906 5.0091 10.651 4.99268 10.4465 5.23117C10.0714 5.67406 9.71333 6.13392 9.30436 6.54289C9.01459 6.86658 8.92877 7.2238 8.8259 7.59807C8.80863 7.71711 8.91002 7.9889 9.01195 8.02267C9.47063 8.17463 9.92924 8.3606 10.4053 8.35951C11.9353 8.39001 13.4486 8.33553 14.9957 8.31499C15.3018 8.31429 15.6079 8.27958 15.9137 8.34689C16.2707 8.39707 16.5599 8.2774 16.8155 8.0558C16.9858 7.9194 17.1562 7.74899 17.3266 7.57859C17.8548 7.08434 17.9754 6.38701 17.6539 5.7247C17.6371 5.63973 17.6033 5.5378 17.5695 5.43587C17.0288 3.97499 16.4881 2.51412 15.9475 1.05325C15.8967 0.934352 15.846 0.815458 15.7613 0.696643C15.3885 0.119452 14.9296 0.0694993 14.4524 0.580632C14.2139 0.819197 14.0092 1.09169 13.7538 1.27929C13.2599 1.63745 13.2078 2.0966 13.4107 2.60618C13.4445 2.70811 13.4782 2.81004 13.495 2.89501C13.7316 3.54051 13.9851 4.20298 14.2216 4.84849C14.2722 5.03539 14.3227 5.25629 14.3901 5.52816Z" fill="white"/>
<path d="M4.69248 15.2529C4.91729 15.2126 4.9973 15.1738 5.08663 15.1687C6.05995 15.0787 7.03328 14.9886 8.0066 14.8986C8.30847 14.8745 8.56714 14.8254 8.70511 14.5366C8.9565 14.0014 9.1863 13.4538 9.48088 12.9435C9.68023 12.5484 9.66704 12.1723 9.66612 11.7749C9.65044 11.6525 9.47427 11.409 9.36334 11.4017C8.86418 11.3686 8.35569 11.3018 7.88153 11.4249C6.34813 11.7868 4.85496 12.2286 3.3186 12.6455C3.01379 12.7247 2.71829 12.8375 2.39483 12.8492C2.02523 12.8909 1.76997 13.0837 1.57654 13.3689C1.44447 13.5477 1.32173 13.7603 1.19899 13.9729C0.809168 14.5983 0.881691 15.3204 1.38518 15.8946C1.42542 15.9745 1.48724 16.0669 1.54907 16.1593C2.49173 17.4689 3.43439 18.7785 4.37705 20.0881C4.46047 20.1929 4.5439 20.2978 4.66119 20.3938C5.19218 20.8705 5.66339 20.8024 5.99775 20.1734C6.16959 19.8758 6.29824 19.5532 6.50099 19.3017C6.89422 18.8201 6.8192 18.3516 6.47619 17.8985C6.41436 17.8061 6.35253 17.7137 6.3123 17.6338C5.89814 17.0545 5.46239 16.4628 5.04822 15.8835C4.94616 15.7112 4.83478 15.5051 4.69248 15.2529Z" fill="white"/>
<path d="M12.8596 7.61305C13.0212 7.69016 13.183 7.78327 13.3442 7.84437C13.5863 7.95203 13.8438 8.02739 14.0862 8.15105C14.4576 8.3204 14.5693 8.30235 14.7383 7.91502C14.7692 7.85042 14.7997 7.76981 14.8146 7.7055C15.0724 6.9163 15.0744 6.14777 14.772 5.36879C14.5205 4.74897 14.1274 4.25982 13.7022 3.77125C13.6693 3.72382 13.6047 3.69298 13.5558 3.64584C13.3934 3.52072 13.2311 3.39559 13.0844 3.25417C12.5807 2.84709 12.0458 2.4886 11.3724 2.43684C10.9394 2.3967 10.5049 2.27654 10.0719 2.2364C9.33366 2.13778 8.59656 2.10319 7.84754 2.29295C7.46517 2.39598 7.09968 2.54674 6.71702 2.63376C5.4576 2.92889 4.46154 3.61948 3.64708 4.61095C2.89518 5.52122 2.80152 6.53157 3.02942 7.61612C3.11703 8.03079 3.18193 8.07763 3.61435 8.08576C3.96675 8.09535 4.33399 8.04062 4.68581 8.0182C5.11794 8.01032 5.19621 7.91284 5.15662 7.49729C5.09752 6.88998 5.23106 6.31118 5.44521 5.76293C5.4906 5.61801 5.63202 5.47134 5.75831 5.37298C6.51604 4.7828 7.3736 4.39893 8.31409 4.17365C8.93566 4.01823 9.5456 4.10318 10.1704 4.12381C10.4588 4.13456 10.7643 4.20905 11.0544 4.31583C11.3766 4.42203 11.6676 4.57683 11.9743 4.71533C12.6526 5.03918 13.1325 5.89498 13.0339 6.63325C12.9914 6.93822 12.9172 7.25978 12.8596 7.61305Z" fill="white"/>
<path d="M5.25245 12.8697C5.07649 12.837 4.8961 12.7889 4.72457 12.7717C4.46284 12.7303 4.19457 12.7242 3.92842 12.6675C3.52592 12.6 3.42265 12.6464 3.35961 13.0642C3.34654 13.1346 3.33789 13.2204 3.3402 13.2864C3.29546 14.1154 3.49243 14.8582 3.98613 15.5324C4.38943 16.066 4.8958 16.4368 5.43293 16.7987C5.47697 16.836 5.54736 16.849 5.60678 16.8819C5.79602 16.9607 5.98525 17.0396 6.16353 17.1382C6.75546 17.401 7.36489 17.6089 8.02872 17.4846C8.45736 17.4113 8.90812 17.4149 9.33676 17.3416C10.0754 17.2458 10.7963 17.0884 11.4707 16.7113C11.8134 16.5128 12.1274 16.2726 12.4745 16.0895C13.6146 15.4784 14.398 14.5536 14.9281 13.3851C15.4188 12.3112 15.2478 11.3111 14.7469 10.3225C14.555 9.94461 14.4802 9.91616 14.0604 10.0202C13.7175 10.1022 13.3769 10.2501 13.0429 10.3628C12.6275 10.4822 12.5772 10.5967 12.723 10.9878C12.9372 11.5591 12.9581 12.1528 12.8931 12.7378C12.8868 12.8895 12.7881 13.0678 12.6916 13.1955C12.1124 13.9617 11.3834 14.5544 10.5333 15.0154C9.97314 15.3264 9.362 15.4022 8.75317 15.544C8.47184 15.6083 8.15742 15.6154 7.84954 15.5873C7.51089 15.5681 7.18973 15.4939 6.85762 15.4395C6.11858 15.3023 5.43354 14.5998 5.33772 13.8612C5.29981 13.5556 5.28825 13.2258 5.25245 12.8697Z" fill="white"/>
</svg>
